{"accessors":[{"bufferView":2,"componentType":5126,"count":1734,"max":[1.745697021484375,0.23199699819087982,3.575484037399292],"min":[0.02910900115966797,0.0008310005068778992,0.02191305160522461],"type":"VEC3"},{"bufferView":2,"byteOffset":20808,"componentType":5126,"count":1734,"max":[1,1,1],"min":[-1,-1,-1],"type":"VEC3"},{"bufferView":3,"componentType":5126,"count":1734,"max":[0,0,0,1],"min":[0,0,0,1],"type":"VEC4"},{"bufferView":0,"componentType":5125,"count":7806,"max":[1733],"min":[0],"type":"SCALAR"},{"bufferView":2,"byteOffset":41616,"componentType":5126,"count":57,"max":[1.5590529441833496,0.23199699819087982,3.48976993560791],"min":[1.3759770393371582,0.23199699819087982,3.3086490631103516],"type":"VEC3"},{"bufferView":2,"byteOffset":42300,"componentType":5126,"count":57,"max":[0,1,0],"min":[0,1,0],"type":"VEC3"},{"bufferView":3,"byteOffset":27744,"componentType":5126,"count":57,"max":[-0.999047577381134,0,0.008560363203287125,1],"min":[-1,0,-0.043634459376335144,1],"type":"VEC4"},{"bufferView":1,"componentType":5126,"count":57,"max":[0.7552289962768555,0.8260020017623901],"min":[0.24684099853038788,0.18368999660015106],"type":"VEC2"},{"bufferView":0,"byteOffset":31224,"componentType":5125,"count":252,"max":[56],"min":[0],"type":"SCALAR"},{"bufferView":2,"byteOffset":42984,"componentType":5126,"count":2612,"max":[1.745697021484375,0.23199699819087982,3.6211209297180176],"min":[0.0014960169792175293,0.03838399797677994,0],"type":"VEC3"},{"bufferView":2,"byteOffset":74328,"componentType":5126,"count":2612,"max":[1,1,1],"min":[-1,-1,-1],"type":"VEC3"},{"bufferView":3,"byteOffset":28656,"componentType":5126,"count":2612,"max":[0,0,0,1],"min":[0,0,0,1],"type":"VEC4"},{"bufferView":0,"byteOffset":32232,"componentType":5125,"count":11706,"max":[2611],"min":[0],"type":"SCALAR"},{"bufferView":2,"byteOffset":105672,"componentType":5126,"count":142,"max":[1.0749469995498657,0.235166996717453,3.428467035293579],"min":[0.6492010354995728,0,2.43973708152771],"type":"VEC3"},{"bufferView":2,"byteOffset":107376,"componentType":5126,"count":142,"max":[0,1,0],"min":[0,-1,0],"type":"VEC3"},{"bufferView":3,"byteOffset":70448,"componentType":5126,"count":142,"max":[0,0,0,1],"min":[0,0,0,1],"type":"VEC4"},{"bufferView":0,"byteOffset":79056,"componentType":5125,"count":402,"max":[141],"min":[0],"type":"SCALAR"},{"bufferView":2,"byteOffset":109080,"componentType":5126,"count":41,"max":[1.227241039276123,0.23199699819087982,3.4631381034851074],"min":[1.161857008934021,0.23199699819087982,3.329514980316162],"type":"VEC3"},{"bufferView":2,"byteOffset":109572,"componentType":5126,"count":41,"max":[0,1,0],"min":[0,1,0],"type":"VEC3"},{"bufferView":3,"byteOffset":72720,"componentType":5126,"count":41,"max":[-1,0,0.00004894195080851205,1],"min":[-1,0,-0.00004894195080851205,1],"type":"VEC4"},{"bufferView":1,"byteOffset":456,"componentType":5126,"count":41,"max":[0.8777070045471191,0.8777070045471191],"min":[0.12229300290346146,0.12229300290346146],"type":"VEC2"},{"bufferView":0,"byteOffset":80664,"componentType":5125,"count":180,"max":[40],"min":[0],"type":"SCALAR"},{"bufferView":2,"byteOffset":110064,"componentType":5126,"count":63,"max":[1.6481010913848877,0.0008310005068778992,3.120626926422119],"min":[0.12349498271942139,0.0008310005068778992,0.47445595264434814],"type":"VEC3"},{"bufferView":2,"byteOffset":110820,"componentType":5126,"count":63,"max":[0,-1,0],"min":[0,-1,0],"type":"VEC3"},{"bufferView":3,"byteOffset":73376,"componentType":5126,"count":63,"max":[1,0,0.12723715603351593,1],"min":[0.9918724298477173,0,-0.12723705172538757,1],"type":"VEC4"},{"bufferView":1,"byteOffset":784,"componentType":5126,"count":63,"max":[1,1],"min":[0,0],"type":"VEC2"},{"bufferView":0,"byteOffset":81384,"componentType":5125,"count":288,"max":[62],"min":[0],"type":"SCALAR"},{"bufferView":2,"byteOffset":111576,"componentType":5126,"count":1185,"max":[1.4905030727386475,0.23683398962020874,3.395965099334717],"min":[0.29598402976989746,0.06551499664783478,0],"type":"VEC3"},{"bufferView":2,"byteOffset":125796,"componentType":5126,"count":1185,"max":[0,1,0],"min":[0,-1,-1],"type":"VEC3"},{"bufferView":3,"byteOffset":74384,"componentType":5126,"count":1185,"max":[0,0,0,1],"min":[0,0,0,1],"type":"VEC4"},{"bufferView":0,"byteOffset":82536,"componentType":5125,"count":4608,"max":[1184],"min":[0],"type":"SCALAR"},{"bufferView":2,"byteOffset":140016,"componentType":5126,"count":1160,"max":[1.745697021484375,0.23199699819087982,3.6211209297180176],"min":[0,0.0008310005068778992,0],"type":"VEC3"},{"bufferView":2,"byteOffset":153936,"componentType":5126,"count":1160,"max":[0.7091040015220642,0.7819019556045532,0.715376079082489],"min":[-1,-0.7819019556045532,-0.7818143367767334],"type":"VEC3"},{"bufferView":3,"byteOffset":93344,"componentType":5126,"count":1160,"max":[0,0,0,1],"min":[0,0,0,1],"type":"VEC4"},{"bufferView":0,"byteOffset":100968,"componentType":5125,"count":4488,"max":[1159],"min":[0],"type":"SCALAR"}],"asset":{"extras":{"author":"Eternal Realm (https://sketchfab.com/EternalRealm)","license":"CC-BY-4.0 (http://creativecommons.org/licenses/by/4.0/)","source":"https://sketchfab.com/models/2a8b3bd5333d4f1899a67d5dca6b24ab","title":"IPhone 5s"},"generator":"Sketchfab-3.20.7","version":"2.0"},"bufferViews":[{"buffer":0,"byteLength":118920,"byteOffset":0,"name":"floatBufferViews","target":34963},{"buffer":0,"byteLength":1288,"byteOffset":118920,"byteStride":8,"name":"floatBufferViews","target":34962},{"buffer":0,"byteLength":167856,"byteOffset":120208,"byteStride":12,"name":"floatBufferViews","target":34962},{"buffer":0,"byteLength":111904,"byteOffset":288064,"byteStride":16,"name":"floatBufferViews","target":34962}],"buffers":[{"byteLength":399968,"uri":"data:application/octet-stream;base64,"}],"images":[{"uri":"data:application/octet-stream;base64,"},{"uri":"data:application/octet-stream;base64,"},{"uri":"data:application/octet-stream;base64,"},{"uri":"data:application/octet-stream;base64,"}],"materials":[{"doubleSided":true,"emissiveFactor":[0,0,0],"name":"base","pbrMetallicRoughness":{"baseColorFactor":[1,1,1,1],"metallicFactor":0.0931783537,"roughnessFactor":0}},{"doubleSided":true,"emissiveFactor":[0,0,0],"name":"black","pbrMetallicRoughness":{"baseColorFactor":[0,0,0,1],"metallicFactor":0,"roughnessFactor":0.6}},{"doubleSided":true,"emissiveFactor":[0,0,0],"name":"camera","pbrMetallicRoughness":{"baseColorFactor":[1,1,1,1],"baseColorTexture":{"index":3,"texCoord":0},"metallicFactor":0.4102515244,"roughnessFactor":0}},{"doubleSided":true,"emissiveFactor":[0,0,0],"name":"gray","pbrMetallicRoughness":{"baseColorFactor":[0.6435635529,0.6435635529,0.6435635529,1],"metallicFactor":0.3919588415,"roughnessFactor":0.24828506100000003}},{"doubleSided":true,"emissiveFactor":[0,0,0],"name":"logo","pbrMetallicRoughness":{"baseColorFactor":[0,0,0,1],"metallicFactor":0.7943978659,"roughnessFactor":0}},{"doubleSided":true,"emissiveFactor":[0,0,0],"name":"micthing","pbrMetallicRoughness":{"baseColorFactor":[1,1,1,1],"baseColorTexture":{"index":0,"texCoord":0},"metallicFactor":0,"roughnessFactor":0.6}},{"doubleSided":true,"emissiveFactor":[1,1,1],"emissiveTexture":{"index":2,"texCoord":0},"name":"screen","pbrMetallicRoughness":{"baseColorFactor":[1,1,1,1],"baseColorTexture":{"index":1,"texCoord":0},"metallicFactor":1,"roughnessFactor":0}},{"doubleSided":true,"emissiveFactor":[0,0,0],"name":"silver","pbrMetallicRoughness":{"baseColorFactor":[0.3310827365,0.3310827365,0.3310827365,1],"metallicFactor":0.4712271341,"roughnessFactor":0.08974847559999999}}],"meshes":[{"primitives":[{"attributes":{"NORMAL":1,"POSITION":0,"TANGENT":2},"indices":3,"material":0,"mode":4}]},{"primitives":[{"attributes":{"NORMAL":5,"POSITION":4,"TANGENT":6,"TEXCOORD_0":7},"indices":8,"material":2,"mode":4}]},{"primitives":[{"attributes":{"NORMAL":10,"POSITION":9,"TANGENT":11},"indices":12,"material":3,"mode":4}]},{"primitives":[{"attributes":{"NORMAL":14,"POSITION":13,"TANGENT":15},"indices":16,"material":4,"mode":4}]},{"primitives":[{"attributes":{"NORMAL":18,"POSITION":17,"TANGENT":19,"TEXCOORD_0":20},"indices":21,"material":5,"mode":4}]},{"primitives":[{"attributes":{"NORMAL":23,"POSITION":22,"TANGENT":24,"TEXCOORD_0":25},"indices":26,"material":6,"mode":4}]},{"primitives":[{"attributes":{"NORMAL":28,"POSITION":27,"TANGENT":29},"indices":30,"material":1,"mode":4}]},{"primitives":[{"attributes":{"NORMAL":32,"POSITION":31,"TANGENT":33},"indices":34,"material":7,"mode":4}]}],"nodes":[{"children":[1],"name":"RootNode (gltf orientation matrix)","rotation":[-0.7071067811865475,0,0,0.7071067811865476]},{"children":[2],"name":"RootNode (model correction matrix)"},{"children":[3],"matrix":[1,0,0,0,0,1,0,0,0,0,1,0,-0.8874030113220215,-0.11845199763774872,-2.004812002182007,1],"name":"aa8945ac610343a683f423379061e07c.obj.cleaner.materialmerger.gles"},{"children":[4,5,6,7,8,9,10,11],"name":""},{"mesh":0,"name":""},{"mesh":1,"name":""},{"mesh":2,"name":""},{"mesh":3,"name":""},{"mesh":4,"name":""},{"mesh":5,"name":""},{"mesh":6,"name":""},{"mesh":7,"name":""}],"samplers":[{"magFilter":9729,"minFilter":9987,"wrapS":10497,"wrapT":10497}],"scene":0,"scenes":[{"name":"OSG_Scene","nodes":[0]}],"textures":[{"sampler":0,"source":0},{"sampler":0,"source":1},{"sampler":0,"source":2},{"sampler":0,"source":3}]}